<svg xmlns="http://www.w3.org/2000/svg" xmlns:xlink="http://www.w3.org/1999/xlink" xml:space="preserve" id="PRINT" x="0" y="0" style="enable-background:new 0 0 155.9 240.9" version="1.1" viewBox="0 0 155.9 240.9"><style>.st1{fill:#bebebd}.st2{fill:#d6d6d6}.st5{clip-path:url(#SVGID_2_)}</style><pattern id="Nueva_muestra_de_motivo_2" width="25" height="25" x="-83.4" y="231.8" patternUnits="userSpaceOnUse" style="overflow:visible" viewBox="0 -25 25 25"><path d="M0-25h25V0H0z" style="fill:none"/><path d="M0-25h12.5v12.5H0zM12.5-12.5H25V0H12.5z" class="st1"/><path d="M12.5-25H25v12.5H12.5zM0-12.5h12.5V0H0z" class="st2"/></pattern><defs><path id="SVGID_1_" d="M-52.1 7.9h261v175.9h-261z" transform="rotate(90 78.344 95.82)"/></defs><clipPath id="SVGID_2_"><use xlink:href="#SVGID_1_" style="overflow:visible"/></clipPath><linearGradient id="SVGID_3_" x1="-44.912" x2="201.6" y1="-49.109" y2="-49.109" gradientUnits="userSpaceOnUse"><stop offset=".001" style="stop-color:#00adc3"/><stop offset=".998" style="stop-color:#4d80c1"/></linearGradient><circle cx="78.3" cy="-49.1" r="123.3" style="clip-path:url(#SVGID_2_);fill:url(#SVGID_3_)"/><linearGradient id="SVGID_4_" x1="-79.616" x2="166.896" y1="-77.477" y2="-77.477" gradientUnits="userSpaceOnUse"><stop offset=".001" style="stop-color:#00adc3"/><stop offset=".998" style="stop-color:#4d80c1"/></linearGradient><circle cx="43.6" cy="-77.5" r="123.3" style="opacity:.5;clip-path:url(#SVGID_2_);fill:url(#SVGID_4_)"/><g class="st5"><linearGradient id="SVGID_5_" x1="-7.575" x2="239.437" y1="-107.381" y2="-107.381" gradientUnits="userSpaceOnUse"><stop offset=".001" style="stop-color:#00adc3"/><stop offset=".998" style="stop-color:#4d80c1"/></linearGradient><circle cx="115.9" cy="-107.4" r="123.3" style="opacity:.5;fill:none;stroke:url(#SVGID_5_);stroke-width:.5;stroke-miterlimit:10"/><linearGradient id="SVGID_6_" x1="-9.897" x2="237.121" y1="-110.192" y2="-110.192" gradientTransform="rotate(1.765 -96.805 16.063)" gradientUnits="userSpaceOnUse"><stop offset=".001" style="stop-color:#00adc3"/><stop offset=".998" style="stop-color:#4d80c1"/></linearGradient><circle cx="117.4" cy="-103.6" r="123.3" style="opacity:.5;fill:none;stroke:url(#SVGID_6_);stroke-width:.5;stroke-miterlimit:10" transform="rotate(-45.001 117.4 -103.648)"/><linearGradient id="SVGID_7_" x1="-11.764" x2="235.247" y1="-114.433" y2="-114.433" gradientTransform="rotate(3.533 -120.516 6.288)" gradientUnits="userSpaceOnUse"><stop offset=".001" style="stop-color:#00adc3"/><stop offset=".998" style="stop-color:#4d80c1"/></linearGradient><circle cx="118.7" cy="-99.9" r="123.3" style="opacity:.5;fill:none;stroke:url(#SVGID_7_);stroke-width:.5;stroke-miterlimit:10" transform="rotate(-45.001 118.75 -99.873)"/><linearGradient id="SVGID_8_" x1="-14.361" x2="232.657" y1="-117.005" y2="-117.005" gradientTransform="rotate(5.315 -111.609 10.525)" gradientUnits="userSpaceOnUse"><stop offset=".001" style="stop-color:#00adc3"/><stop offset=".998" style="stop-color:#4d80c1"/></linearGradient><circle cx="120" cy="-96.1" r="123.3" style="opacity:.5;fill:none;stroke:url(#SVGID_8_);stroke-width:.5;stroke-miterlimit:10" transform="rotate(-45.001 119.984 -96.058)"/><linearGradient id="SVGID_9_" x1="-16.837" x2="230.174" y1="-120.62" y2="-120.62" gradientTransform="rotate(7.068 -116.059 10.351)" gradientUnits="userSpaceOnUse"><stop offset=".001" style="stop-color:#00adc3"/><stop offset=".998" style="stop-color:#4d80c1"/></linearGradient><circle cx="121.1" cy="-92.2" r="123.3" style="opacity:.5;fill:none;stroke:url(#SVGID_9_);stroke-width:.5;stroke-miterlimit:10" transform="rotate(-45.001 121.1 -92.206)"/><linearGradient id="SVGID_10_" x1="-19.472" x2="227.548" y1="-123.015" y2="-123.015" gradientTransform="rotate(8.836 -111.428 11.21)" gradientUnits="userSpaceOnUse"><stop offset=".001" style="stop-color:#00adc3"/><stop offset=".998" style="stop-color:#4d80c1"/></linearGradient><circle cx="122.1" cy="-88.3" r="123.3" style="opacity:.5;fill:none;stroke:url(#SVGID_10_);stroke-width:.5;stroke-miterlimit:10" transform="rotate(-45.001 122.096 -88.322)"/><linearGradient id="SVGID_11_" x1="-22.246" x2="224.772" y1="-126.022" y2="-126.022" gradientTransform="rotate(10.603 -112.087 11.767)" gradientUnits="userSpaceOnUse"><stop offset=".001" style="stop-color:#00adc3"/><stop offset=".998" style="stop-color:#4d80c1"/></linearGradient><circle cx="123" cy="-84.4" r="123.3" style="opacity:.5;fill:none;stroke:url(#SVGID_11_);stroke-width:.5;stroke-miterlimit:10" transform="rotate(-45.001 122.972 -84.409)"/></g><g class="st5"><linearGradient id="SVGID_12_" x1="-279.096" x2="-32.071" y1="-159.53" y2="-159.53" gradientTransform="rotate(66.383 -121.046 -20.431)" gradientUnits="userSpaceOnUse"><stop offset=".001" style="stop-color:#00adc3"/><stop offset=".998" style="stop-color:#4d80c1"/></linearGradient><circle cx="-7.4" cy="-107.8" r="123.3" style="opacity:.5;fill:none;stroke:url(#SVGID_12_);stroke-width:.5;stroke-miterlimit:10" transform="rotate(-45.001 -7.432 -107.797)"/><linearGradient id="SVGID_13_" x1="-283.623" x2="-36.622" y1="-155.085" y2="-155.085" gradientTransform="rotate(68.15 -122.252 -19.244)" gradientUnits="userSpaceOnUse"><stop offset=".001" style="stop-color:#00adc3"/><stop offset=".998" style="stop-color:#4d80c1"/></linearGradient><circle cx="-10.3" cy="-105" r="123.3" style="opacity:.5;fill:none;stroke:url(#SVGID_13_);stroke-width:.5;stroke-miterlimit:10" transform="rotate(-45.001 -10.264 -104.958)"/><linearGradient id="SVGID_14_" x1="-287.024" x2="-40.014" y1="-149.507" y2="-149.507" gradientTransform="rotate(69.916 -122.18 -18.338)" gradientUnits="userSpaceOnUse"><stop offset=".001" style="stop-color:#00adc3"/><stop offset=".998" style="stop-color:#4d80c1"/></linearGradient><circle cx="-13.2" cy="-102.2" r="123.3" style="opacity:.5;fill:none;stroke:url(#SVGID_14_);stroke-width:.5;stroke-miterlimit:10" transform="rotate(-45.001 -13.182 -102.207)"/><linearGradient id="SVGID_15_" x1="-290.475" x2="-43.458" y1="-143.631" y2="-143.631" gradientTransform="rotate(71.681 -122.089 -17.212)" gradientUnits="userSpaceOnUse"><stop offset=".001" style="stop-color:#00adc3"/><stop offset=".998" style="stop-color:#4d80c1"/></linearGradient><circle cx="-16.2" cy="-99.5" r="123.3" style="opacity:.5;fill:none;stroke:url(#SVGID_15_);stroke-width:.5;stroke-miterlimit:10" transform="rotate(-45.001 -16.183 -99.548)"/><linearGradient id="SVGID_16_" x1="-293.274" x2="-46.265" y1="-139.21" y2="-139.21" gradientTransform="rotate(73.453 -122.818 -17.237)" gradientUnits="userSpaceOnUse"><stop offset=".001" style="stop-color:#00adc3"/><stop offset=".998" style="stop-color:#4d80c1"/></linearGradient><circle cx="-19.3" cy="-97" r="123.3" style="opacity:.5;fill:none;stroke:url(#SVGID_16_);stroke-width:.5;stroke-miterlimit:10" transform="rotate(-45.001 -19.265 -96.983)"/><linearGradient id="SVGID_17_" x1="-296.164" x2="-49.148" y1="-133.462" y2="-133.462" gradientTransform="rotate(75.22 -122.818 -16.484)" gradientUnits="userSpaceOnUse"><stop offset=".001" style="stop-color:#00adc3"/><stop offset=".998" style="stop-color:#4d80c1"/></linearGradient><circle cx="-22.4" cy="-94.5" r="123.3" style="opacity:.5;fill:none;stroke:url(#SVGID_17_);stroke-width:.5;stroke-miterlimit:10" transform="rotate(-45.001 -22.424 -94.514)"/><linearGradient id="SVGID_18_" x1="-299.39" x2="-52.375" y1="-127.569" y2="-127.569" gradientTransform="rotate(76.985 -123.044 -15.403)" gradientUnits="userSpaceOnUse"><stop offset=".001" style="stop-color:#00adc3"/><stop offset=".998" style="stop-color:#4d80c1"/></linearGradient><circle cx="-25.7" cy="-92.1" r="123.3" style="opacity:.5;fill:none;stroke:url(#SVGID_18_);stroke-width:.5;stroke-miterlimit:10" transform="rotate(-45.001 -25.659 -92.144)"/></g><circle cx="78.3" cy="64.6" r="37.1" style="fill:#fff" transform="rotate(-80.781 78.345 64.564)"/><linearGradient id="SVGID_19_" x1="42.633" x2="114.055" y1="64.566" y2="64.566" gradientUnits="userSpaceOnUse"><stop offset=".001" style="stop-color:#00adc3"/><stop offset=".998" style="stop-color:#4d80c1"/></linearGradient><path d="M78.3 100.3c-19.7 0-35.7-16-35.7-35.7 0-19.7 16-35.7 35.7-35.7s35.7 16 35.7 35.7c.1 19.7-16 35.7-35.7 35.7zm0-70.4c-19.1 0-34.7 15.6-34.7 34.7s15.6 34.7 34.7 34.7S113 83.7 113 64.6 97.5 29.9 78.3 29.9z" style="fill:url(#SVGID_19_)"/><pattern xlink:href="#Nueva_muestra_de_motivo_2" id="SVGID_20_" patternTransform="translate(-4521.81 -4700.116) scale(.4313)"/><circle cx="78.3" cy="64.6" r="32.3" style="fill:url(#SVGID_20_)"/></svg>